<svg id="Capa_1" enable-background="new 0 0 512 512" height="512" viewBox="0 0 512 512" width="512" xmlns="http://www.w3.org/2000/svg"><g><g><path d="m474.018 471.047h-436.036c-20.977 0-37.982-17.005-37.982-37.982v-354.13c0-20.977 17.005-37.982 37.982-37.982h436.036c20.977 0 37.982 17.005 37.982 37.982v354.13c0 20.977-17.005 37.982-37.982 37.982z" fill="#4e6da0"/><path d="m474.018 40.953h-218.018v430.093h218.018c20.977 0 37.982-17.005 37.982-37.982v-354.129c0-20.977-17.005-37.982-37.982-37.982z" fill="#2e3e6e"/></g><g><g fill="#fbf4f4"><path d="m113.671 267.92h-25.552c-8.284 0-15-6.716-15-15s6.716-15 15-15h25.552c8.284 0 15 6.716 15 15s-6.716 15-15 15z"/><path d="m113.671 207.92h-25.552c-8.284 0-15-6.716-15-15s6.716-15 15-15h25.552c8.284 0 15 6.716 15 15s-6.716 15-15 15z"/><path d="m113.671 147.92h-25.552c-8.284 0-15-6.716-15-15s6.716-15 15-15h25.552c8.284 0 15 6.716 15 15s-6.716 15-15 15z"/></g><g fill="#f4da90"><path d="m361.99 346.927c-6.258 0-12.017-4.041-14.114-9.943-2.093-5.89-.265-12.685 4.603-16.647s11.821-4.483 17.218-1.27c5.369 3.196 8.24 9.676 7.003 15.8-1.399 6.926-7.638 12.06-14.71 12.06z"/><path d="m298.17 346.927c-6.288 0-11.982-4.046-14.119-9.943-2.137-5.898-.22-12.674 4.609-16.647 4.843-3.984 11.833-4.471 17.211-1.27 5.388 3.206 8.22 9.664 6.999 15.8-1.378 6.926-7.639 12.06-14.7 12.06z"/><path d="m234.35 346.936c-6.258 0-12.026-4.055-14.12-9.952s-.261-12.674 4.6-16.647c4.859-3.971 11.833-4.478 17.221-1.27 5.361 3.192 8.253 9.679 6.999 15.8-1.417 6.913-7.612 12.069-14.7 12.069z"/></g><g><path d="m416.869 269.979h-214.279c-12.157 0-22.012-9.855-22.012-22.012v-110.094c0-12.157 9.855-22.012 22.012-22.012h214.279c12.157 0 22.012 9.855 22.012 22.012v110.095c0 12.156-9.855 22.011-22.012 22.011z" fill="#8fd5c1"/><path d="m416.869 115.861h-160.869v154.119h160.869c12.157 0 22.012-9.855 22.012-22.012v-110.095c0-12.157-9.855-22.012-22.012-22.012z" fill="#5fa2a2"/></g><g><path d="m0 371.252h512v30h-512z" fill="#fbf4f4"/><path d="m256 371.252h256v30h-256z" fill="#e2e9ee"/></g></g></g></svg>